<svg width="32" height="32" viewBox="0 0 32 32" fill="none" xmlns="http://www.w3.org/2000/svg">
  <rect width="32" height="32" rx="4" fill="#3178C6"/>
  <path d="M18.5 20.5V24H20V20.5H23V19H18.5V20.5Z" fill="white"/>
  <path d="M9 19V20.5H11.5V24H13V20.5H15.5V19H9Z" fill="white"/>
  <path d="M20.5 8H11.5C9.57 8 8 9.57 8 11.5V20.5C8 22.43 9.57 24 11.5 24H20.5C22.43 24 24 22.43 24 20.5V11.5C24 9.57 22.43 8 20.5 8Z" fill="none"/>
  <path d="M18.5 14.5C19.33 14.5 20 15.17 20 16V17.5H21.5V16C21.5 14.34 20.16 13 18.5 13C16.84 13 15.5 14.34 15.5 16V17.5H17V16C17 15.17 17.67 14.5 18.5 14.5Z" fill="white"/>
</svg>